<svg id="Ebene_1" data-name="Ebene 1" xmlns="http://www.w3.org/2000/svg" viewBox="0 0 190.97 81"><rect x="-0.01" y="-0.01" width="191" height="81" fill="none"/><path d="M50.57,48.1a5.6,5.6,0,0,1-1.68.24c-5,0-12.45-17.64-12.45-23.5,0-2.17.51-2.89,1.23-3.5-6.17.72-13.58,3-16,5.86a5.74,5.74,0,0,0-.83,3.3c0,9.16,9.78,30,16.68,30,3.19,0,8.57-5.25,13-12.35" fill="#fff"/><path d="M47.35,20.72c6.38,0,12.77,1,12.77,4.63,0,7.31-4.64,16.16-7,16.16-4.22,0-9.47-11.73-9.47-17.6,0-2.68,1-3.19,3.71-3.19" fill="#fff"/><path d="M81.51,33.67V60.5H77.77V33.67H71.15V30.4h17v3.27Z" fill="#fff"/><path d="M101.21,46.53v14H97.34v-14L89.64,30.4h4.13l5.67,12.51,5.68-12.51H109Z" fill="#fff"/><path d="M120.9,49.15h-3.61V60.5h-3.74V30.4s3.69-.3,7.26-.3c6.54,0,8.43,4,8.43,9.33C129.24,46,127,49.15,120.9,49.15Zm.43-15.95a30.37,30.37,0,0,0-4,.25V46h4c2.41,0,4.08-1.59,4.08-6.28C125.41,35.43,124.38,33.2,121.33,33.2Z" fill="#fff"/><path d="M143.17,60.8c-7.09,0-9-5.16-9-15.69,0-10.11,1.89-15,9-15s9,4.9,9,15C152.16,55.64,150.27,60.8,143.17,60.8Zm0-27.56c-3.87,0-5.16,2.62-5.16,12.08,0,9.25,1.29,12.34,5.16,12.34s5.16-3.09,5.16-12.34C148.33,35.86,147,33.24,143.17,33.24Z" fill="#fff"/><path d="M163.73,60.8a33.1,33.1,0,0,1-5.64-.73V56.84a32.47,32.47,0,0,0,5.59.69c2.2,0,3.62-1.8,3.62-5.11,0-4-.65-6-3.7-6h-3.53V43.3h3.1c3.48,0,3.65-3.57,3.65-5.29,0-3.4-1.07-4.77-3.22-4.77a27.42,27.42,0,0,0-5.29.73V30.83a26.44,26.44,0,0,1,5.2-.73c4.43,0,7,1.89,7,8.3,0,2.92-.9,5.5-3.27,6.23C170,45,171,47.77,171,52,171,58.39,168.5,60.8,163.73,60.8Z" fill="#fff"/></svg>